<svg xmlns="http://www.w3.org/2000/svg" width="210mm" height="297mm" viewBox="0 0 120 169.714" data-page-index="0"><rect x="0" y="0" width="120" height="169.714" fill="#fff" /><g transform="translate(8.576,21.381)"><line x1="0" y1="0" x2="41.396" y2="0" stroke="#000" stroke-width="0.13" /><line x1="0" y1="1" x2="41.396" y2="1" stroke="#000" stroke-width="0.13" /><line x1="0" y1="2" x2="41.396" y2="2" stroke="#000" stroke-width="0.13" /><line x1="0" y1="3" x2="41.396" y2="3" stroke="#000" stroke-width="0.13" /><line x1="0" y1="4" x2="41.396" y2="4" stroke="#000" stroke-width="0.13" /><line x1="0" y1="12.12" x2="41.396" y2="12.12" stroke="#000" stroke-width="0.13" /><line x1="0" y1="13.12" x2="41.396" y2="13.12" stroke="#000" stroke-width="0.13" /><line x1="0" y1="14.12" x2="41.396" y2="14.12" stroke="#000" stroke-width="0.13" /><line x1="0" y1="15.12" x2="41.396" y2="15.12" stroke="#000" stroke-width="0.13" /><line x1="0" y1="16.12" x2="41.396" y2="16.12" stroke="#000" stroke-width="0.13" /><g transform="translate(-1.728,16.12) scale(4.028)"><text x="0" y="0" font-family="Bravura" font-size="4"></text></g><line x1="0" y1="0" x2="0" y2="16.12" stroke="#000" stroke-width="0.16" /><g transform="translate(0.4,3)"><text x="0" y="0" font-family="Bravura" font-size="4"></text></g><g transform="translate(4.036,1)"><text x="0" y="0" font-family="Bravura" font-size="4"></text></g><g transform="translate(4.036,3)"><text x="0" y="0" font-family="Bravura" font-size="4"></text></g><g transform="translate(0.4,13.12)"><text x="0" y="0" font-family="Bravura" font-size="4"></text></g><g transform="translate(4.036,13.12)"><text x="0" y="0" font-family="Bravura" font-size="4"></text></g><g transform="translate(4.036,15.12)"><text x="0" y="0" font-family="Bravura" font-size="4"></text></g><g transform="translate(7.816,1.5)"><text x="0" y="0" font-family="Bravura" font-size="4"></text></g><line x1="8.936" y1="1.332" x2="8.936" y2="-2" stroke="#000" stroke-width="0.12" /><g transform="translate(7.816,2.5)"><text x="0" y="0" font-family="Bravura" font-size="4"></text></g><line x1="7.876" y1="2.668" x2="7.876" y2="6" stroke="#000" stroke-width="0.12" /><g transform="translate(11.316,1)"><text x="0" y="0" font-family="Bravura" font-size="4"></text></g><line x1="12.436" y1="0.832" x2="12.436" y2="-2.5" stroke="#000" stroke-width="0.12" /><g transform="translate(11.316,3)"><text x="0" y="0" font-family="Bravura" font-size="4"></text></g><line x1="11.376" y1="3.168" x2="11.376" y2="6.5" stroke="#000" stroke-width="0.12" /><g transform="translate(14.816,0.5)"><text x="0" y="0" font-family="Bravura" font-size="4"></text></g><line x1="15.936" y1="0.332" x2="15.936" y2="-3" stroke="#000" stroke-width="0.12" /><g transform="translate(14.816,3.5)"><text x="0" y="0" font-family="Bravura" font-size="4"></text></g><line x1="14.876" y1="3.668" x2="14.876" y2="7" stroke="#000" stroke-width="0.12" /><g transform="translate(18.316,0)"><text x="0" y="0" font-family="Bravura" font-size="4"></text></g><line x1="19.436" y1="-0.168" x2="19.436" y2="-3.5" stroke="#000" stroke-width="0.12" /><g transform="translate(18.316,4)"><text x="0" y="0" font-family="Bravura" font-size="4"></text></g><line x1="18.376" y1="4.168" x2="18.376" y2="7.5" stroke="#000" stroke-width="0.12" /><g transform="translate(7.816,14.62)"><text x="0" y="0" font-family="Bravura" font-size="4"></text></g><line x1="8.936" y1="14.452" x2="8.936" y2="11.12" stroke="#000" stroke-width="0.12" /><line x1="7.416" y1="17.12" x2="9.904" y2="17.12" stroke="#000" stroke-width="0.16" /><line x1="7.416" y1="18.12" x2="9.904" y2="18.12" stroke="#000" stroke-width="0.16" /><g transform="translate(7.816,18.12)"><text x="0" y="0" font-family="Bravura" font-size="4"></text></g><g transform="translate(11.316,14.12)"><text x="0" y="0" font-family="Bravura" font-size="4"></text></g><line x1="12.436" y1="13.952" x2="12.436" y2="10.62" stroke="#000" stroke-width="0.12" /><g transform="translate(14.816,13.62)"><text x="0" y="0" font-family="Bravura" font-size="4"></text></g><line x1="15.936" y1="13.452" x2="15.936" y2="10.12" stroke="#000" stroke-width="0.12" /><g transform="translate(18.316,13.12)"><text x="0" y="0" font-family="Bravura" font-size="4"></text></g><line x1="19.436" y1="12.952" x2="19.436" y2="9.62" stroke="#000" stroke-width="0.12" /><line x1="21.896" y1="0" x2="21.896" y2="16.12" stroke="#000" stroke-width="0.16" /><polygon points="23.936,-3.758 31.556,-2.742 31.556,-2.242 23.936,-3.258" fill="#000" /><polygon points="22.876,5.757 31.676,4.743 31.676,4.243 22.876,5.257" fill="#000" /><g transform="translate(22.876,-0.5)"><text x="0" y="0" font-family="Bravura" font-size="4"></text></g><line x1="23.996" y1="-0.668" x2="23.996" y2="-3.75" stroke="#000" stroke-width="0.12" /><g transform="translate(22.876,2.5)"><text x="0" y="0" font-family="Bravura" font-size="4"></text></g><line x1="22.936" y1="2.668" x2="22.936" y2="5.75" stroke="#000" stroke-width="0.12" /><g transform="translate(25.376,0)"><text x="0" y="0" font-family="Bravura" font-size="4"></text></g><line x1="26.496" y1="-0.168" x2="26.496" y2="-3.417" stroke="#000" stroke-width="0.12" /><g transform="translate(25.376,2)"><text x="0" y="0" font-family="Bravura" font-size="4"></text></g><line x1="25.436" y1="2.168" x2="25.436" y2="5.462" stroke="#000" stroke-width="0.12" /><g transform="translate(27.876,0.5)"><text x="0" y="0" font-family="Bravura" font-size="4"></text></g><line x1="28.996" y1="0.332" x2="28.996" y2="-3.083" stroke="#000" stroke-width="0.12" /><g transform="translate(27.876,1.5)"><text x="0" y="0" font-family="Bravura" font-size="4"></text></g><line x1="27.936" y1="1.668" x2="27.936" y2="5.174" stroke="#000" stroke-width="0.12" /><g transform="translate(30.376,1)"><text x="0" y="0" font-family="Bravura" font-size="4"></text></g><line x1="31.496" y1="0.832" x2="31.496" y2="-2.75" stroke="#000" stroke-width="0.12" /><g transform="translate(31.556,1)"><text x="0" y="0" font-family="Bravura" font-size="4"></text></g><line x1="31.616" y1="1.168" x2="31.616" y2="4.75" stroke="#000" stroke-width="0.12" /><g transform="translate(33.336,1.5)"><text x="0" y="0" font-family="Bravura" font-size="4"></text></g><line x1="34.456" y1="1.332" x2="34.456" y2="-2" stroke="#000" stroke-width="0.12" /><g transform="translate(33.336,3)"><text x="0" y="0" font-family="Bravura" font-size="4"></text></g><line x1="33.396" y1="3.168" x2="33.396" y2="6.5" stroke="#000" stroke-width="0.12" /><g transform="translate(36.836,3)"><text x="0" y="0" font-family="Bravura" font-size="4"></text></g><line x1="22.476" y1="17.12" x2="24.964" y2="17.12" stroke="#000" stroke-width="0.16" /><line x1="22.476" y1="18.12" x2="24.964" y2="18.12" stroke="#000" stroke-width="0.16" /><g transform="translate(22.876,18.12)"><text x="0" y="0" font-family="Bravura" font-size="4"></text></g><g transform="translate(27.876,13.62)"><text x="0" y="0" font-family="Bravura" font-size="4"></text></g><line x1="28.996" y1="13.452" x2="28.996" y2="10.12" stroke="#000" stroke-width="0.12" /><g transform="translate(33.336,13.12)"><text x="0" y="0" font-family="Bravura" font-size="4"></text></g><g transform="translate(36.836,12.62)"><text x="0" y="0" font-family="Bravura" font-size="4"></text></g><line x1="37.956" y1="12.452" x2="37.956" y2="9.12" stroke="#000" stroke-width="0.12" /><line x1="41.146" y1="0" x2="41.146" y2="16.12" stroke="#000" stroke-width="0.5" /><line x1="40.416" y1="0" x2="40.416" y2="16.12" stroke="#000" stroke-width="0.16" /></g><text x="60" y="11.971" font-family="serif" font-size="3.4" text-anchor="middle" font-weight="bold">Voices</text></svg>