<svg xmlns="http://www.w3.org/2000/svg" width="210mm" height="297mm" viewBox="0 0 120 169.714" data-page-index="0"><rect x="0" y="0" width="120" height="169.714" fill="#fff" /><g transform="translate(15.933,23.239)"><line x1="0" y1="0" x2="97.21" y2="0" stroke="#000" stroke-width="0.13" /><line x1="0" y1="1" x2="97.21" y2="1" stroke="#000" stroke-width="0.13" /><line x1="0" y1="2" x2="97.21" y2="2" stroke="#000" stroke-width="0.13" /><line x1="0" y1="3" x2="97.21" y2="3" stroke="#000" stroke-width="0.13" /><line x1="0" y1="4" x2="97.21" y2="4" stroke="#000" stroke-width="0.13" /><line x1="0" y1="12" x2="97.21" y2="12" stroke="#000" stroke-width="0.13" /><line x1="0" y1="13" x2="97.21" y2="13" stroke="#000" stroke-width="0.13" /><line x1="0" y1="14" x2="97.21" y2="14" stroke="#000" stroke-width="0.13" /><line x1="0" y1="15" x2="97.21" y2="15" stroke="#000" stroke-width="0.13" /><line x1="0" y1="16" x2="97.21" y2="16" stroke="#000" stroke-width="0.13" /><line x1="0" y1="24" x2="97.21" y2="24" stroke="#000" stroke-width="0.13" /><line x1="0" y1="25" x2="97.21" y2="25" stroke="#000" stroke-width="0.13" /><line x1="0" y1="26" x2="97.21" y2="26" stroke="#000" stroke-width="0.13" /><line x1="0" y1="27" x2="97.21" y2="27" stroke="#000" stroke-width="0.13" /><line x1="0" y1="28" x2="97.21" y2="28" stroke="#000" stroke-width="0.13" /><line x1="0" y1="36" x2="97.21" y2="36" stroke="#000" stroke-width="0.13" /><line x1="0" y1="37" x2="97.21" y2="37" stroke="#000" stroke-width="0.13" /><line x1="0" y1="38" x2="97.21" y2="38" stroke="#000" stroke-width="0.13" /><line x1="0" y1="39" x2="97.21" y2="39" stroke="#000" stroke-width="0.13" /><line x1="0" y1="40" x2="97.21" y2="40" stroke="#000" stroke-width="0.13" /><line x1="-2.226" y1="0" x2="-2.226" y2="40" stroke="#000" stroke-width="0.5" /><g transform="translate(-2.476,0)"><text x="0" y="0" font-family="Bravura" font-size="4"></text></g><g transform="translate(-2.476,40)"><text x="0" y="0" font-family="Bravura" font-size="4"></text></g><line x1="0" y1="0" x2="0" y2="40" stroke="#000" stroke-width="0.16" /><text x="-3.476" y="2.56" font-family="serif" font-size="1.6" text-anchor="end">Soprano</text><text x="-3.476" y="14.56" font-family="serif" font-size="1.6" text-anchor="end">Alto</text><text x="-3.476" y="26.56" font-family="serif" font-size="1.6" text-anchor="end">Tenor</text><text x="-3.476" y="38.56" font-family="serif" font-size="1.6" text-anchor="end">Bass</text><g transform="translate(0.4,3)"><text x="0" y="0" font-family="Bravura" font-size="4"></text></g><g transform="translate(4.036,1)"><text x="0" y="0" font-family="Bravura" font-size="4"></text></g><g transform="translate(4.036,3)"><text x="0" y="0" font-family="Bravura" font-size="4"></text></g><g transform="translate(0.4,15)"><text x="0" y="0" font-family="Bravura" font-size="4"></text></g><g transform="translate(4.036,13)"><text x="0" y="0" font-family="Bravura" font-size="4"></text></g><g transform="translate(4.036,15)"><text x="0" y="0" font-family="Bravura" font-size="4"></text></g><g transform="translate(0.4,27)"><text x="0" y="0" font-family="Bravura" font-size="4"></text></g><g transform="translate(4.036,25)"><text x="0" y="0" font-family="Bravura" font-size="4"></text></g><g transform="translate(4.036,27)"><text x="0" y="0" font-family="Bravura" font-size="4"></text></g><g transform="translate(0.4,37)"><text x="0" y="0" font-family="Bravura" font-size="4"></text></g><g transform="translate(4.036,37)"><text x="0" y="0" font-family="Bravura" font-size="4"></text></g><g transform="translate(4.036,39)"><text x="0" y="0" font-family="Bravura" font-size="4"></text></g><g transform="translate(10.921,3)"><text x="0" y="0" font-family="Bravura" font-size="4"></text></g><line x1="12.041" y1="2.832" x2="12.041" y2="-0.5" stroke="#000" stroke-width="0.12" /><g transform="translate(17.733,3)"><text x="0" y="0" font-family="Bravura" font-size="4"></text></g><line x1="18.853" y1="2.832" x2="18.853" y2="-0.5" stroke="#000" stroke-width="0.12" /><g transform="translate(23.609,2.5)"><text x="0" y="0" font-family="Bravura" font-size="4"></text></g><line x1="24.729" y1="2.332" x2="24.729" y2="-1" stroke="#000" stroke-width="0.12" /><g transform="translate(10.921,16)"><text x="0" y="0" font-family="Bravura" font-size="4"></text></g><line x1="12.041" y1="15.832" x2="12.041" y2="12.5" stroke="#000" stroke-width="0.12" /><g transform="translate(17.733,16)"><text x="0" y="0" font-family="Bravura" font-size="4"></text></g><line x1="18.853" y1="15.832" x2="18.853" y2="12.5" stroke="#000" stroke-width="0.12" /><g transform="translate(23.609,15.5)"><text x="0" y="0" font-family="Bravura" font-size="4"></text></g><line x1="24.729" y1="15.332" x2="24.729" y2="12" stroke="#000" stroke-width="0.12" /><g transform="translate(10.921,25.5)"><text x="0" y="0" font-family="Bravura" font-size="4"></text></g><line x1="10.981" y1="25.668" x2="10.981" y2="29" stroke="#000" stroke-width="0.12" /><g transform="translate(17.733,25.5)"><text x="0" y="0" font-family="Bravura" font-size="4"></text></g><line x1="17.793" y1="25.668" x2="17.793" y2="29" stroke="#000" stroke-width="0.12" /><g transform="translate(23.609,25.5)"><text x="0" y="0" font-family="Bravura" font-size="4"></text></g><line x1="23.669" y1="25.668" x2="23.669" y2="29" stroke="#000" stroke-width="0.12" /><g transform="translate(10.921,38.5)"><text x="0" y="0" font-family="Bravura" font-size="4"></text></g><line x1="12.041" y1="38.332" x2="12.041" y2="35" stroke="#000" stroke-width="0.12" /><g transform="translate(17.733,38.5)"><text x="0" y="0" font-family="Bravura" font-size="4"></text></g><line x1="18.853" y1="38.332" x2="18.853" y2="35" stroke="#000" stroke-width="0.12" /><g transform="translate(23.609,40.5)"><text x="0" y="0" font-family="Bravura" font-size="4"></text></g><line x1="24.729" y1="40.332" x2="24.729" y2="37" stroke="#000" stroke-width="0.12" /><line x1="30.596" y1="0" x2="30.596" y2="40" stroke="#000" stroke-width="0.16" /><g transform="translate(33.746,2)"><text x="0" y="0" font-family="Bravura" font-size="4"></text></g><line x1="33.806" y1="2.168" x2="33.806" y2="5.5" stroke="#000" stroke-width="0.12" /><g transform="translate(39.49,1.5)"><text x="0" y="0" font-family="Bravura" font-size="4"></text></g><line x1="39.55" y1="1.668" x2="39.55" y2="5" stroke="#000" stroke-width="0.12" /><g transform="translate(46.301,2)"><text x="0" y="0" font-family="Bravura" font-size="4"></text></g><line x1="46.361" y1="2.168" x2="46.361" y2="5.5" stroke="#000" stroke-width="0.12" /><g transform="translate(33.746,15)"><text x="0" y="0" font-family="Bravura" font-size="4"></text></g><line x1="34.866" y1="14.832" x2="34.866" y2="11.5" stroke="#000" stroke-width="0.12" /><g transform="translate(39.49,15)"><text x="0" y="0" font-family="Bravura" font-size="4"></text></g><line x1="40.61" y1="14.832" x2="40.61" y2="11.5" stroke="#000" stroke-width="0.12" /><g transform="translate(46.301,15)"><text x="0" y="0" font-family="Bravura" font-size="4"></text></g><line x1="47.421" y1="14.832" x2="47.421" y2="11.5" stroke="#000" stroke-width="0.12" /><g transform="translate(33.746,25)"><text x="0" y="0" font-family="Bravura" font-size="4"></text></g><line x1="33.806" y1="25.168" x2="33.806" y2="28.5" stroke="#000" stroke-width="0.12" /><g transform="translate(39.49,24.5)"><text x="0" y="0" font-family="Bravura" font-size="4"></text></g><line x1="39.55" y1="24.668" x2="39.55" y2="28" stroke="#000" stroke-width="0.12" /><g transform="translate(46.301,25)"><text x="0" y="0" font-family="Bravura" font-size="4"></text></g><line x1="46.361" y1="25.168" x2="46.361" y2="28.5" stroke="#000" stroke-width="0.12" /><g transform="translate(33.746,40)"><text x="0" y="0" font-family="Bravura" font-size="4"></text></g><line x1="34.866" y1="39.832" x2="34.866" y2="36.5" stroke="#000" stroke-width="0.12" /><g transform="translate(39.49,38.5)"><text x="0" y="0" font-family="Bravura" font-size="4"></text></g><line x1="40.61" y1="38.332" x2="40.61" y2="35" stroke="#000" stroke-width="0.12" /><g transform="translate(46.301,40)"><text x="0" y="0" font-family="Bravura" font-size="4"></text></g><line x1="47.421" y1="39.832" x2="47.421" y2="36.5" stroke="#000" stroke-width="0.12" /><line x1="53.288" y1="0" x2="53.288" y2="40" stroke="#000" stroke-width="0.16" /><g transform="translate(56.438,2.5)"><text x="0" y="0" font-family="Bravura" font-size="4"></text></g><line x1="57.558" y1="2.332" x2="57.558" y2="-1" stroke="#000" stroke-width="0.12" /><g transform="translate(63.117,3)"><text x="0" y="0" font-family="Bravura" font-size="4"></text></g><line x1="64.237" y1="2.832" x2="64.237" y2="-0.5" stroke="#000" stroke-width="0.12" /><g transform="translate(68.489,2.5)"><text x="0" y="0" font-family="Bravura" font-size="4"></text></g><line x1="69.609" y1="2.332" x2="69.609" y2="-1" stroke="#000" stroke-width="0.12" /><g transform="translate(73.86,2)"><text x="0" y="0" font-family="Bravura" font-size="4"></text></g><line x1="73.92" y1="2.168" x2="73.92" y2="5.5" stroke="#000" stroke-width="0.12" /><g transform="translate(56.438,15.5)"><text x="0" y="0" font-family="Bravura" font-size="4"></text></g><line x1="57.558" y1="15.332" x2="57.558" y2="12" stroke="#000" stroke-width="0.12" /><g transform="translate(63.117,16)"><text x="0" y="0" font-family="Bravura" font-size="4"></text></g><line x1="64.237" y1="15.832" x2="64.237" y2="12.5" stroke="#000" stroke-width="0.12" /><g transform="translate(68.489,15.5)"><text x="0" y="0" font-family="Bravura" font-size="4"></text></g><line x1="69.609" y1="15.332" x2="69.609" y2="12" stroke="#000" stroke-width="0.12" /><g transform="translate(73.86,15)"><text x="0" y="0" font-family="Bravura" font-size="4"></text></g><line x1="74.98" y1="14.832" x2="74.98" y2="11.5" stroke="#000" stroke-width="0.12" /><g transform="translate(56.438,25.5)"><text x="0" y="0" font-family="Bravura" font-size="4"></text></g><line x1="56.498" y1="25.668" x2="56.498" y2="29" stroke="#000" stroke-width="0.12" /><g transform="translate(63.117,25.5)"><text x="0" y="0" font-family="Bravura" font-size="4"></text></g><line x1="63.177" y1="25.668" x2="63.177" y2="29" stroke="#000" stroke-width="0.12" /><g transform="translate(68.489,25.5)"><text x="0" y="0" font-family="Bravura" font-size="4"></text></g><line x1="68.549" y1="25.668" x2="68.549" y2="29" stroke="#000" stroke-width="0.12" /><g transform="translate(73.86,25)"><text x="0" y="0" font-family="Bravura" font-size="4"></text></g><line x1="73.92" y1="25.168" x2="73.92" y2="28.5" stroke="#000" stroke-width="0.12" /><g transform="translate(56.438,40.5)"><text x="0" y="0" font-family="Bravura" font-size="4"></text></g><line x1="57.558" y1="40.332" x2="57.558" y2="37" stroke="#000" stroke-width="0.12" /><g transform="translate(63.117,38.5)"><text x="0" y="0" font-family="Bravura" font-size="4"></text></g><line x1="64.237" y1="38.332" x2="64.237" y2="35" stroke="#000" stroke-width="0.12" /><g transform="translate(68.489,40.5)"><text x="0" y="0" font-family="Bravura" font-size="4"></text></g><line x1="69.609" y1="40.332" x2="69.609" y2="37" stroke="#000" stroke-width="0.12" /><g transform="translate(73.86,40)"><text x="0" y="0" font-family="Bravura" font-size="4"></text></g><line x1="74.98" y1="39.832" x2="74.98" y2="36.5" stroke="#000" stroke-width="0.12" /><line x1="79.312" y1="0" x2="79.312" y2="40" stroke="#000" stroke-width="0.16" /><g transform="translate(82.462,1.5)"><text x="0" y="0" font-family="Bravura" font-size="4"></text></g><line x1="82.522" y1="1.668" x2="82.522" y2="5" stroke="#000" stroke-width="0.12" /><g transform="translate(90.143,2)"><text x="0" y="0" font-family="Bravura" font-size="4"></text></g><line x1="90.203" y1="2.168" x2="90.203" y2="5.5" stroke="#000" stroke-width="0.12" /><g transform="translate(82.462,15)"><text x="0" y="0" font-family="Bravura" font-size="4"></text></g><line x1="83.582" y1="14.832" x2="83.582" y2="11.5" stroke="#000" stroke-width="0.12" /><g transform="translate(90.143,15)"><text x="0" y="0" font-family="Bravura" font-size="4"></text></g><line x1="91.263" y1="14.832" x2="91.263" y2="11.5" stroke="#000" stroke-width="0.12" /><g transform="translate(82.462,24.5)"><text x="0" y="0" font-family="Bravura" font-size="4"></text></g><line x1="82.522" y1="24.668" x2="82.522" y2="28" stroke="#000" stroke-width="0.12" /><g transform="translate(90.143,25)"><text x="0" y="0" font-family="Bravura" font-size="4"></text></g><line x1="90.203" y1="25.168" x2="90.203" y2="28.5" stroke="#000" stroke-width="0.12" /><g transform="translate(82.462,38.5)"><text x="0" y="0" font-family="Bravura" font-size="4"></text></g><line x1="83.582" y1="38.332" x2="83.582" y2="35" stroke="#000" stroke-width="0.12" /><g transform="translate(90.143,40)"><text x="0" y="0" font-family="Bravura" font-size="4"></text></g><line x1="91.263" y1="39.832" x2="91.263" y2="36.5" stroke="#000" stroke-width="0.12" /><line x1="97.13" y1="0" x2="97.13" y2="40" stroke="#000" stroke-width="0.16" /><g transform="translate(10.921,-1.668) scale(1)"><text x="0" y="0" font-family="Bravura" font-size="4" text-anchor="start"></text></g><text x="11.511" y="8.36" font-family="serif" font-size="1.7" text-anchor="middle">Praise</text><text x="18.323" y="8.36" font-family="serif" font-size="1.7" text-anchor="middle">God</text><text x="24.199" y="8.36" font-family="serif" font-size="1.7" text-anchor="middle">from</text><text x="34.336" y="8.36" font-family="serif" font-size="1.7" text-anchor="middle">whom</text><text x="40.08" y="8.36" font-family="serif" font-size="1.7" text-anchor="middle">all</text><text x="46.891" y="8.36" font-family="serif" font-size="1.7" text-anchor="middle">bless</text><text x="52.193" y="8.36" font-family="serif" font-size="1.7" text-anchor="middle">-</text><text x="57.028" y="8.36" font-family="serif" font-size="1.7" text-anchor="middle">ings</text><text x="63.707" y="8.36" font-family="serif" font-size="1.7" text-anchor="middle">flow</text><line x1="65.927" y1="8.61" x2="69.669" y2="8.61" stroke="#000" stroke-width="0.12" /><text x="74.45" y="8.36" font-family="serif" font-size="1.7" text-anchor="middle">Praise</text><text x="83.052" y="8.36" font-family="serif" font-size="1.7" text-anchor="middle">Him</text><text x="90.733" y="8.36" font-family="serif" font-size="1.7" text-anchor="middle">all</text><text x="11.511" y="10.26" font-family="serif" font-size="1.7" text-anchor="middle">To</text><text x="18.323" y="10.26" font-family="serif" font-size="1.7" text-anchor="middle">Fa</text><text x="20.793" y="10.26" font-family="serif" font-size="1.7" text-anchor="middle">-</text><text x="24.199" y="10.26" font-family="serif" font-size="1.7" text-anchor="middle">ther</text><text x="34.336" y="10.26" font-family="serif" font-size="1.7" text-anchor="middle">Son</text><text x="40.08" y="10.26" font-family="serif" font-size="1.7" text-anchor="middle">and</text><text x="46.891" y="10.26" font-family="serif" font-size="1.7" text-anchor="middle">Ho</text><text x="51.96" y="10.26" font-family="serif" font-size="1.7" text-anchor="middle">-</text><text x="57.028" y="10.26" font-family="serif" font-size="1.7" text-anchor="middle">ly</text><text x="63.707" y="10.26" font-family="serif" font-size="1.7" text-anchor="middle">Ghost</text><line x1="66.394" y1="10.51" x2="69.669" y2="10.51" stroke="#000" stroke-width="0.12" /><text x="74.45" y="10.26" font-family="serif" font-size="1.7" text-anchor="middle">Praise</text><text x="83.052" y="10.26" font-family="serif" font-size="1.7" text-anchor="middle">God</text><text x="90.733" y="10.26" font-family="serif" font-size="1.7" text-anchor="middle">the</text><text x="83.052" y="44.36" font-family="serif" font-size="1.7" text-anchor="middle">Sing</text><text x="90.733" y="44.36" font-family="serif" font-size="1.7" text-anchor="middle">praise</text></g><g transform="translate(15.933,83.132)"><line x1="0" y1="0" x2="97.21" y2="0" stroke="#000" stroke-width="0.13" /><line x1="0" y1="1" x2="97.21" y2="1" stroke="#000" stroke-width="0.13" /><line x1="0" y1="2" x2="97.21" y2="2" stroke="#000" stroke-width="0.13" /><line x1="0" y1="3" x2="97.21" y2="3" stroke="#000" stroke-width="0.13" /><line x1="0" y1="4" x2="97.21" y2="4" stroke="#000" stroke-width="0.13" /><line x1="0" y1="12" x2="97.21" y2="12" stroke="#000" stroke-width="0.13" /><line x1="0" y1="13" x2="97.21" y2="13" stroke="#000" stroke-width="0.13" /><line x1="0" y1="14" x2="97.21" y2="14" stroke="#000" stroke-width="0.13" /><line x1="0" y1="15" x2="97.21" y2="15" stroke="#000" stroke-width="0.13" /><line x1="0" y1="16" x2="97.21" y2="16" stroke="#000" stroke-width="0.13" /><line x1="0" y1="24" x2="97.21" y2="24" stroke="#000" stroke-width="0.13" /><line x1="0" y1="25" x2="97.21" y2="25" stroke="#000" stroke-width="0.13" /><line x1="0" y1="26" x2="97.21" y2="26" stroke="#000" stroke-width="0.13" /><line x1="0" y1="27" x2="97.21" y2="27" stroke="#000" stroke-width="0.13" /><line x1="0" y1="28" x2="97.21" y2="28" stroke="#000" stroke-width="0.13" /><line x1="0" y1="36" x2="97.21" y2="36" stroke="#000" stroke-width="0.13" /><line x1="0" y1="37" x2="97.21" y2="37" stroke="#000" stroke-width="0.13" /><line x1="0" y1="38" x2="97.21" y2="38" stroke="#000" stroke-width="0.13" /><line x1="0" y1="39" x2="97.21" y2="39" stroke="#000" stroke-width="0.13" /><line x1="0" y1="40" x2="97.21" y2="40" stroke="#000" stroke-width="0.13" /><line x1="-2.226" y1="0" x2="-2.226" y2="40" stroke="#000" stroke-width="0.5" /><g transform="translate(-2.476,0)"><text x="0" y="0" font-family="Bravura" font-size="4"></text></g><g transform="translate(-2.476,40)"><text x="0" y="0" font-family="Bravura" font-size="4"></text></g><line x1="0" y1="0" x2="0" y2="40" stroke="#000" stroke-width="0.16" /><text x="-3.476" y="2.56" font-family="serif" font-size="1.6" text-anchor="end">S.</text><text x="-3.476" y="14.56" font-family="serif" font-size="1.6" text-anchor="end">A.</text><text x="-3.476" y="26.56" font-family="serif" font-size="1.6" text-anchor="end">T.</text><text x="-3.476" y="38.56" font-family="serif" font-size="1.6" text-anchor="end">B.</text><text x="0" y="-1.8" font-family="sans-serif" font-size="1.4" text-anchor="start">5</text><g transform="translate(0.4,3)"><text x="0" y="0" font-family="Bravura" font-size="4"></text></g><g transform="translate(0.4,15)"><text x="0" y="0" font-family="Bravura" font-size="4"></text></g><g transform="translate(0.4,27)"><text x="0" y="0" font-family="Bravura" font-size="4"></text></g><g transform="translate(0.4,37)"><text x="0" y="0" font-family="Bravura" font-size="4"></text></g><g transform="translate(7.706,2.5)"><text x="0" y="0" font-family="Bravura" font-size="4"></text></g><line x1="8.826" y1="2.332" x2="8.826" y2="-1" stroke="#000" stroke-width="0.12" /><g transform="translate(15.246,2)"><text x="0" y="0" font-family="Bravura" font-size="4"></text></g><line x1="15.306" y1="2.168" x2="15.306" y2="5.5" stroke="#000" stroke-width="0.12" /><g transform="translate(22.187,1.5)"><text x="0" y="0" font-family="Bravura" font-size="4"></text></g><line x1="22.247" y1="1.668" x2="22.247" y2="5" stroke="#000" stroke-width="0.12" /><g transform="translate(7.706,15.5)"><text x="0" y="0" font-family="Bravura" font-size="4"></text></g><line x1="8.826" y1="15.332" x2="8.826" y2="12" stroke="#000" stroke-width="0.12" /><g transform="translate(15.246,15)"><text x="0" y="0" font-family="Bravura" font-size="4"></text></g><line x1="16.366" y1="14.832" x2="16.366" y2="11.5" stroke="#000" stroke-width="0.12" /><g transform="translate(22.187,15)"><text x="0" y="0" font-family="Bravura" font-size="4"></text></g><line x1="23.307" y1="14.832" x2="23.307" y2="11.5" stroke="#000" stroke-width="0.12" /><g transform="translate(7.706,25.5)"><text x="0" y="0" font-family="Bravura" font-size="4"></text></g><line x1="7.766" y1="25.668" x2="7.766" y2="29" stroke="#000" stroke-width="0.12" /><g transform="translate(15.246,25)"><text x="0" y="0" font-family="Bravura" font-size="4"></text></g><line x1="15.306" y1="25.168" x2="15.306" y2="28.5" stroke="#000" stroke-width="0.12" /><g transform="translate(22.187,24.5)"><text x="0" y="0" font-family="Bravura" font-size="4"></text></g><line x1="22.247" y1="24.668" x2="22.247" y2="28" stroke="#000" stroke-width="0.12" /><g transform="translate(7.706,40.5)"><text x="0" y="0" font-family="Bravura" font-size="4"></text></g><line x1="8.826" y1="40.332" x2="8.826" y2="37" stroke="#000" stroke-width="0.12" /><g transform="translate(15.246,40)"><text x="0" y="0" font-family="Bravura" font-size="4"></text></g><line x1="16.366" y1="39.832" x2="16.366" y2="36.5" stroke="#000" stroke-width="0.12" /><g transform="translate(22.187,38.5)"><text x="0" y="0" font-family="Bravura" font-size="4"></text></g><line x1="23.307" y1="38.332" x2="23.307" y2="35" stroke="#000" stroke-width="0.12" /><line x1="29.509" y1="0" x2="29.509" y2="40" stroke="#000" stroke-width="0.16" /><g transform="translate(32.324,1)"><text x="0" y="0" font-family="Bravura" font-size="4"></text></g><line x1="32.384" y1="1.168" x2="32.384" y2="4.5" stroke="#000" stroke-width="0.12" /><g transform="translate(38.929,1.5)"><text x="0" y="0" font-family="Bravura" font-size="4"></text></g><line x1="38.989" y1="1.668" x2="38.989" y2="5" stroke="#000" stroke-width="0.12" /><g transform="translate(46.805,2)"><text x="0" y="0" font-family="Bravura" font-size="4"></text></g><line x1="46.865" y1="2.168" x2="46.865" y2="5.5" stroke="#000" stroke-width="0.12" /><g transform="translate(32.324,15.5)"><text x="0" y="0" font-family="Bravura" font-size="4"></text></g><line x1="33.444" y1="15.332" x2="33.444" y2="12" stroke="#000" stroke-width="0.12" /><g transform="translate(38.929,16)"><text x="0" y="0" font-family="Bravura" font-size="4"></text></g><line x1="40.049" y1="15.832" x2="40.049" y2="12.5" stroke="#000" stroke-width="0.12" /><g transform="translate(46.805,16.5)"><text x="0" y="0" font-family="Bravura" font-size="4"></text></g><line x1="47.925" y1="16.332" x2="47.925" y2="13" stroke="#000" stroke-width="0.12" /><g transform="translate(32.324,26.5)"><text x="0" y="0" font-family="Bravura" font-size="4"></text></g><line x1="33.444" y1="26.332" x2="33.444" y2="23" stroke="#000" stroke-width="0.12" /><g transform="translate(38.929,26.5)"><text x="0" y="0" font-family="Bravura" font-size="4"></text></g><line x1="40.049" y1="26.332" x2="40.049" y2="23" stroke="#000" stroke-width="0.12" /><g transform="translate(46.805,27)"><text x="0" y="0" font-family="Bravura" font-size="4"></text></g><line x1="47.925" y1="26.832" x2="47.925" y2="23.5" stroke="#000" stroke-width="0.12" /><g transform="translate(32.324,38)"><text x="0" y="0" font-family="Bravura" font-size="4"></text></g><line x1="32.384" y1="38.168" x2="32.384" y2="41.5" stroke="#000" stroke-width="0.12" /><g transform="translate(38.929,39.5)"><text x="0" y="0" font-family="Bravura" font-size="4"></text></g><line x1="40.049" y1="39.332" x2="40.049" y2="36" stroke="#000" stroke-width="0.12" /><g transform="translate(46.805,40)"><text x="0" y="0" font-family="Bravura" font-size="4"></text></g><line x1="47.925" y1="39.832" x2="47.925" y2="36.5" stroke="#000" stroke-width="0.12" /><line x1="54.127" y1="0" x2="54.127" y2="40" stroke="#000" stroke-width="0.16" /><g transform="translate(56.809,2.5)"><text x="0" y="0" font-family="Bravura" font-size="4"></text></g><line x1="57.929" y1="2.332" x2="57.929" y2="-1" stroke="#000" stroke-width="0.12" /><g transform="translate(62.947,3)"><text x="0" y="0" font-family="Bravura" font-size="4"></text></g><line x1="64.067" y1="2.832" x2="64.067" y2="-0.5" stroke="#000" stroke-width="0.12" /><g transform="translate(69.552,3.5)"><text x="0" y="0" font-family="Bravura" font-size="4"></text></g><line x1="70.672" y1="3.332" x2="70.672" y2="0" stroke="#000" stroke-width="0.12" /><g transform="translate(77.895,4)"><text x="0" y="0" font-family="Bravura" font-size="4"></text></g><line x1="79.015" y1="3.832" x2="79.015" y2="0.5" stroke="#000" stroke-width="0.12" /><g transform="translate(56.809,15.5)"><text x="0" y="0" font-family="Bravura" font-size="4"></text></g><line x1="57.929" y1="15.332" x2="57.929" y2="12" stroke="#000" stroke-width="0.12" /><g transform="translate(62.947,16)"><text x="0" y="0" font-family="Bravura" font-size="4"></text></g><line x1="64.067" y1="15.832" x2="64.067" y2="12.5" stroke="#000" stroke-width="0.12" /><g transform="translate(69.552,16.5)"><text x="0" y="0" font-family="Bravura" font-size="4"></text></g><line x1="70.672" y1="16.332" x2="70.672" y2="13" stroke="#000" stroke-width="0.12" /><line x1="77.495" y1="17" x2="79.475" y2="17" stroke="#000" stroke-width="0.16" /><g transform="translate(77.895,17)"><text x="0" y="0" font-family="Bravura" font-size="4"></text></g><line x1="79.015" y1="16.832" x2="79.015" y2="13.5" stroke="#000" stroke-width="0.12" /><g transform="translate(56.809,25.5)"><text x="0" y="0" font-family="Bravura" font-size="4"></text></g><line x1="56.869" y1="25.668" x2="56.869" y2="29" stroke="#000" stroke-width="0.12" /><g transform="translate(62.947,25.5)"><text x="0" y="0" font-family="Bravura" font-size="4"></text></g><line x1="63.007" y1="25.668" x2="63.007" y2="29" stroke="#000" stroke-width="0.12" /><g transform="translate(69.552,26.5)"><text x="0" y="0" font-family="Bravura" font-size="4"></text></g><line x1="70.672" y1="26.332" x2="70.672" y2="23" stroke="#000" stroke-width="0.12" /><g transform="translate(77.895,27)"><text x="0" y="0" font-family="Bravura" font-size="4"></text></g><line x1="79.015" y1="26.832" x2="79.015" y2="23.5" stroke="#000" stroke-width="0.12" /><g transform="translate(56.809,40.5)"><text x="0" y="0" font-family="Bravura" font-size="4"></text></g><line x1="57.929" y1="40.332" x2="57.929" y2="37" stroke="#000" stroke-width="0.12" /><g transform="translate(62.947,38.5)"><text x="0" y="0" font-family="Bravura" font-size="4"></text></g><line x1="64.067" y1="38.332" x2="64.067" y2="35" stroke="#000" stroke-width="0.12" /><g transform="translate(69.552,38)"><text x="0" y="0" font-family="Bravura" font-size="4"></text></g><line x1="69.612" y1="38.168" x2="69.612" y2="41.5" stroke="#000" stroke-width="0.12" /><g transform="translate(77.895,38.5)"><text x="0" y="0" font-family="Bravura" font-size="4"></text></g><line x1="79.015" y1="38.332" x2="79.015" y2="35" stroke="#000" stroke-width="0.12" /><line x1="84.148" y1="0" x2="84.148" y2="40" stroke="#000" stroke-width="0.16" /><g transform="translate(87.298,3)"><text x="0" y="0" font-family="Bravura" font-size="4"></text></g><g transform="translate(87.298,16.5)"><text x="0" y="0" font-family="Bravura" font-size="4"></text></g><g transform="translate(87.298,26)"><text x="0" y="0" font-family="Bravura" font-size="4"></text></g><g transform="translate(87.298,40)"><text x="0" y="0" font-family="Bravura" font-size="4"></text></g><line x1="96.96" y1="0" x2="96.96" y2="40" stroke="#000" stroke-width="0.5" /><line x1="96.23" y1="0" x2="96.23" y2="40" stroke="#000" stroke-width="0.16" /><g transform="translate(46.805,-1.108) scale(1)"><text x="0" y="0" font-family="Bravura" font-size="4" text-anchor="start"></text></g><text x="8.296" y="8.36" font-family="serif" font-size="1.7" text-anchor="middle">crea</text><text x="11.832" y="8.36" font-family="serif" font-size="1.7" text-anchor="middle">-</text><text x="15.836" y="8.36" font-family="serif" font-size="1.7" text-anchor="middle">tures</text><text x="22.777" y="8.36" font-family="serif" font-size="1.7" text-anchor="middle">here</text><text x="32.914" y="8.36" font-family="serif" font-size="1.7" text-anchor="middle">be</text><text x="35.983" y="8.36" font-family="serif" font-size="1.7" text-anchor="middle">-</text><text x="39.519" y="8.36" font-family="serif" font-size="1.7" text-anchor="middle">low</text><text x="47.395" y="8.36" font-family="serif" font-size="1.7" text-anchor="middle">Praise</text><text x="57.399" y="8.36" font-family="serif" font-size="1.7" text-anchor="middle">Him</text><text x="63.537" y="8.36" font-family="serif" font-size="1.7" text-anchor="middle">a</text><text x="66.139" y="8.36" font-family="serif" font-size="1.7" text-anchor="middle">-</text><text x="70.142" y="8.36" font-family="serif" font-size="1.7" text-anchor="middle">bove</text><text x="78.485" y="8.36" font-family="serif" font-size="1.7" text-anchor="middle">strength</text><text x="88.142" y="8.36" font-family="serif" font-size="1.7" text-anchor="middle">host</text><text x="8.296" y="10.26" font-family="serif" font-size="1.7" text-anchor="middle">foun</text><text x="12.066" y="10.26" font-family="serif" font-size="1.7" text-anchor="middle">-</text><text x="15.836" y="10.26" font-family="serif" font-size="1.7" text-anchor="middle">tain</text><text x="22.777" y="10.26" font-family="serif" font-size="1.7" text-anchor="middle">of</text><text x="32.914" y="10.26" font-family="serif" font-size="1.7" text-anchor="middle">all</text><text x="39.519" y="10.26" font-family="serif" font-size="1.7" text-anchor="middle">grace</text><text x="47.395" y="10.26" font-family="serif" font-size="1.7" text-anchor="middle">Praise</text><text x="57.399" y="10.26" font-family="serif" font-size="1.7" text-anchor="middle">Him</text><text x="63.537" y="10.26" font-family="serif" font-size="1.7" text-anchor="middle">for</text><text x="67.074" y="10.26" font-family="serif" font-size="1.7" text-anchor="middle">-</text><text x="70.142" y="10.26" font-family="serif" font-size="1.7" text-anchor="middle">ev</text><text x="73.379" y="10.26" font-family="serif" font-size="1.7" text-anchor="middle">-</text><text x="78.485" y="10.26" font-family="serif" font-size="1.7" text-anchor="middle">ermore</text><text x="88.142" y="10.26" font-family="serif" font-size="1.7" text-anchor="middle">Amen</text><line x1="32.324" y1="-1.35" x2="46.305" y2="-1.95" stroke="#000" stroke-width="0.16" /><line x1="32.324" y1="-1.35" x2="46.305" y2="-0.75" stroke="#000" stroke-width="0.16" /></g><text x="60" y="11.971" font-family="serif" font-size="3.4" text-anchor="middle" font-weight="bold">Hymn</text></svg>