<svg xmlns="http://www.w3.org/2000/svg" width="210mm" height="297mm" viewBox="0 0 120 169.714" data-page-index="0"><rect x="0" y="0" width="120" height="169.714" fill="#fff" /><g transform="translate(8.576,18.971)"><line x1="0" y1="0" x2="104.566" y2="0" stroke="#000" stroke-width="0.13" /><line x1="0" y1="1" x2="104.566" y2="1" stroke="#000" stroke-width="0.13" /><line x1="0" y1="2" x2="104.566" y2="2" stroke="#000" stroke-width="0.13" /><line x1="0" y1="3" x2="104.566" y2="3" stroke="#000" stroke-width="0.13" /><line x1="0" y1="4" x2="104.566" y2="4" stroke="#000" stroke-width="0.13" /><line x1="0" y1="12" x2="104.566" y2="12" stroke="#000" stroke-width="0.13" /><line x1="0" y1="13" x2="104.566" y2="13" stroke="#000" stroke-width="0.13" /><line x1="0" y1="14" x2="104.566" y2="14" stroke="#000" stroke-width="0.13" /><line x1="0" y1="15" x2="104.566" y2="15" stroke="#000" stroke-width="0.13" /><line x1="0" y1="16" x2="104.566" y2="16" stroke="#000" stroke-width="0.13" /><g transform="translate(-1.719,16) scale(3.998)"><text x="0" y="0" font-family="Bravura" font-size="4"></text></g><line x1="0" y1="0" x2="0" y2="16" stroke="#000" stroke-width="0.16" /><g transform="translate(0.4,3)"><text x="0" y="0" font-family="Bravura" font-size="4"></text></g><g transform="translate(4.036,0)"><text x="0" y="0" font-family="Bravura" font-size="4"></text></g><g transform="translate(6.03,1)"><text x="0" y="0" font-family="Bravura" font-size="4"></text></g><g transform="translate(5.932,3)"><text x="0" y="0" font-family="Bravura" font-size="4"></text></g><g transform="translate(0.4,13)"><text x="0" y="0" font-family="Bravura" font-size="4"></text></g><g transform="translate(4.036,13)"><text x="0" y="0" font-family="Bravura" font-size="4"></text></g><g transform="translate(6.03,13)"><text x="0" y="0" font-family="Bravura" font-size="4"></text></g><g transform="translate(5.932,15)"><text x="0" y="0" font-family="Bravura" font-size="4"></text></g><g transform="translate(9.712,3)"><text x="0" y="0" font-family="Bravura" font-size="4"></text></g><line x1="10.832" y1="2.832" x2="10.832" y2="-0.5" stroke="#000" stroke-width="0.12" /><g transform="translate(13.705,2.5)"><text x="0" y="0" font-family="Bravura" font-size="4"></text></g><line x1="14.825" y1="2.332" x2="14.825" y2="-1" stroke="#000" stroke-width="0.12" /><g transform="translate(17.698,2)"><text x="0" y="0" font-family="Bravura" font-size="4"></text></g><line x1="17.758" y1="2.168" x2="17.758" y2="5.5" stroke="#000" stroke-width="0.12" /><g transform="translate(9.712,12.5)"><text x="0" y="0" font-family="Bravura" font-size="4"></text></g><line x1="9.772" y1="12.668" x2="9.772" y2="16" stroke="#000" stroke-width="0.12" /><g transform="translate(17.698,12.5)"><text x="0" y="0" font-family="Bravura" font-size="4"></text></g><line x1="17.758" y1="12.668" x2="17.758" y2="16" stroke="#000" stroke-width="0.12" /><line x1="21.771" y1="0" x2="21.771" y2="16" stroke="#000" stroke-width="0.16" /><g transform="translate(22.751,1.5)"><text x="0" y="0" font-family="Bravura" font-size="4"></text></g><line x1="22.811" y1="1.668" x2="22.811" y2="5" stroke="#000" stroke-width="0.12" /><g transform="translate(26.744,2)"><text x="0" y="0" font-family="Bravura" font-size="4"></text></g><line x1="26.804" y1="2.168" x2="26.804" y2="5.5" stroke="#000" stroke-width="0.12" /><g transform="translate(30.737,2.5)"><text x="0" y="0" font-family="Bravura" font-size="4"></text></g><line x1="31.857" y1="2.332" x2="31.857" y2="-1" stroke="#000" stroke-width="0.12" /><g transform="translate(22.751,12.5)"><text x="0" y="0" font-family="Bravura" font-size="4"></text></g><line x1="22.811" y1="12.668" x2="22.811" y2="16" stroke="#000" stroke-width="0.12" /><g transform="translate(30.737,12.5)"><text x="0" y="0" font-family="Bravura" font-size="4"></text></g><line x1="30.797" y1="12.668" x2="30.797" y2="16" stroke="#000" stroke-width="0.12" /><line x1="34.81" y1="0" x2="34.81" y2="16" stroke="#000" stroke-width="0.16" /><g transform="translate(35.79,2)"><text x="0" y="0" font-family="Bravura" font-size="4"></text></g><line x1="35.85" y1="2.168" x2="35.85" y2="5.5" stroke="#000" stroke-width="0.12" /><g transform="translate(40.923,3)"><text x="0" y="0" font-family="Bravura" font-size="4"></text></g><line x1="42.043" y1="2.832" x2="42.043" y2="-0.5" stroke="#000" stroke-width="0.12" /><g transform="translate(35.79,12.5)"><text x="0" y="0" font-family="Bravura" font-size="4"></text></g><line x1="35.85" y1="12.668" x2="35.85" y2="16" stroke="#000" stroke-width="0.12" /><g transform="translate(40.923,12.5)"><text x="0" y="0" font-family="Bravura" font-size="4"></text></g><line x1="40.983" y1="12.668" x2="40.983" y2="16" stroke="#000" stroke-width="0.12" /><line x1="44.996" y1="0" x2="44.996" y2="16" stroke="#000" stroke-width="0.16" /><g transform="translate(45.976,4.5)"><text x="0" y="0" font-family="Bravura" font-size="4"></text></g><line x1="47.096" y1="4.332" x2="47.096" y2="1" stroke="#000" stroke-width="0.12" /><g transform="translate(49.969,4)"><text x="0" y="0" font-family="Bravura" font-size="4"></text></g><line x1="51.089" y1="3.832" x2="51.089" y2="0.5" stroke="#000" stroke-width="0.12" /><g transform="translate(53.962,3.5)"><text x="0" y="0" font-family="Bravura" font-size="4"></text></g><line x1="55.082" y1="3.332" x2="55.082" y2="0" stroke="#000" stroke-width="0.12" /><g transform="translate(45.976,14)"><text x="0" y="0" font-family="Bravura" font-size="4"></text></g><line x1="46.036" y1="14.168" x2="46.036" y2="17.5" stroke="#000" stroke-width="0.12" /><g transform="translate(53.962,14)"><text x="0" y="0" font-family="Bravura" font-size="4"></text></g><line x1="54.022" y1="14.168" x2="54.022" y2="17.5" stroke="#000" stroke-width="0.12" /><line x1="58.035" y1="0" x2="58.035" y2="16" stroke="#000" stroke-width="0.16" /><g transform="translate(59.015,3)"><text x="0" y="0" font-family="Bravura" font-size="4"></text></g><line x1="60.135" y1="2.832" x2="60.135" y2="-0.5" stroke="#000" stroke-width="0.12" /><g transform="translate(64.149,3)"><text x="0" y="0" font-family="Bravura" font-size="4"></text></g><line x1="65.269" y1="2.832" x2="65.269" y2="-0.5" stroke="#000" stroke-width="0.12" /><g transform="translate(59.015,12.5)"><text x="0" y="0" font-family="Bravura" font-size="4"></text></g><line x1="59.075" y1="12.668" x2="59.075" y2="16" stroke="#000" stroke-width="0.12" /><g transform="translate(64.149,12.5)"><text x="0" y="0" font-family="Bravura" font-size="4"></text></g><line x1="64.209" y1="12.668" x2="64.209" y2="16" stroke="#000" stroke-width="0.12" /><line x1="68.222" y1="0" x2="68.222" y2="16" stroke="#000" stroke-width="0.16" /><g transform="translate(69.202,2.5)"><text x="0" y="0" font-family="Bravura" font-size="4"></text></g><line x1="70.322" y1="2.332" x2="70.322" y2="-1" stroke="#000" stroke-width="0.12" /><g transform="translate(73.195,2)"><text x="0" y="0" font-family="Bravura" font-size="4"></text></g><line x1="73.255" y1="2.168" x2="73.255" y2="5.5" stroke="#000" stroke-width="0.12" /><g transform="translate(77.188,1.5)"><text x="0" y="0" font-family="Bravura" font-size="4"></text></g><line x1="77.248" y1="1.668" x2="77.248" y2="5" stroke="#000" stroke-width="0.12" /><g transform="translate(69.202,12.5)"><text x="0" y="0" font-family="Bravura" font-size="4"></text></g><line x1="69.262" y1="12.668" x2="69.262" y2="16" stroke="#000" stroke-width="0.12" /><g transform="translate(77.188,12.5)"><text x="0" y="0" font-family="Bravura" font-size="4"></text></g><line x1="77.248" y1="12.668" x2="77.248" y2="16" stroke="#000" stroke-width="0.12" /><line x1="81.261" y1="0" x2="81.261" y2="16" stroke="#000" stroke-width="0.16" /><g transform="translate(82.241,1)"><text x="0" y="0" font-family="Bravura" font-size="4"></text></g><line x1="82.301" y1="1.168" x2="82.301" y2="4.5" stroke="#000" stroke-width="0.12" /><g transform="translate(86.234,1.5)"><text x="0" y="0" font-family="Bravura" font-size="4"></text></g><line x1="86.294" y1="1.668" x2="86.294" y2="5" stroke="#000" stroke-width="0.12" /><g transform="translate(90.227,2)"><text x="0" y="0" font-family="Bravura" font-size="4"></text></g><line x1="90.287" y1="2.168" x2="90.287" y2="5.5" stroke="#000" stroke-width="0.12" /><g transform="translate(82.241,14)"><text x="0" y="0" font-family="Bravura" font-size="4"></text></g><line x1="82.301" y1="14.168" x2="82.301" y2="17.5" stroke="#000" stroke-width="0.12" /><g transform="translate(90.227,14)"><text x="0" y="0" font-family="Bravura" font-size="4"></text></g><line x1="90.287" y1="14.168" x2="90.287" y2="17.5" stroke="#000" stroke-width="0.12" /><line x1="94.3" y1="0" x2="94.3" y2="16" stroke="#000" stroke-width="0.16" /><g transform="translate(95.28,2.5)"><text x="0" y="0" font-family="Bravura" font-size="4"></text></g><line x1="96.4" y1="2.332" x2="96.4" y2="-1" stroke="#000" stroke-width="0.12" /><g transform="translate(100.413,3)"><text x="0" y="0" font-family="Bravura" font-size="4"></text></g><line x1="101.533" y1="2.832" x2="101.533" y2="-0.5" stroke="#000" stroke-width="0.12" /><g transform="translate(95.28,12.5)"><text x="0" y="0" font-family="Bravura" font-size="4"></text></g><line x1="95.34" y1="12.668" x2="95.34" y2="16" stroke="#000" stroke-width="0.12" /><g transform="translate(100.413,12.5)"><text x="0" y="0" font-family="Bravura" font-size="4"></text></g><line x1="100.473" y1="12.668" x2="100.473" y2="16" stroke="#000" stroke-width="0.12" /><line x1="104.486" y1="0" x2="104.486" y2="16" stroke="#000" stroke-width="0.16" /></g><g transform="translate(8.576,49.731)"><line x1="0" y1="0" x2="104.566" y2="0" stroke="#000" stroke-width="0.13" /><line x1="0" y1="1" x2="104.566" y2="1" stroke="#000" stroke-width="0.13" /><line x1="0" y1="2" x2="104.566" y2="2" stroke="#000" stroke-width="0.13" /><line x1="0" y1="3" x2="104.566" y2="3" stroke="#000" stroke-width="0.13" /><line x1="0" y1="4" x2="104.566" y2="4" stroke="#000" stroke-width="0.13" /><line x1="0" y1="12" x2="104.566" y2="12" stroke="#000" stroke-width="0.13" /><line x1="0" y1="13" x2="104.566" y2="13" stroke="#000" stroke-width="0.13" /><line x1="0" y1="14" x2="104.566" y2="14" stroke="#000" stroke-width="0.13" /><line x1="0" y1="15" x2="104.566" y2="15" stroke="#000" stroke-width="0.13" /><line x1="0" y1="16" x2="104.566" y2="16" stroke="#000" stroke-width="0.13" /><g transform="translate(-1.719,16) scale(3.998)"><text x="0" y="0" font-family="Bravura" font-size="4"></text></g><line x1="0" y1="0" x2="0" y2="16" stroke="#000" stroke-width="0.16" /><text x="0" y="-1.8" font-family="sans-serif" font-size="1.4" text-anchor="start">9</text><g transform="translate(0.4,3)"><text x="0" y="0" font-family="Bravura" font-size="4"></text></g><g transform="translate(0.4,13)"><text x="0" y="0" font-family="Bravura" font-size="4"></text></g><g transform="translate(4.936,2)"><text x="0" y="0" font-family="Bravura" font-size="4"></text></g><line x1="4.996" y1="2.168" x2="4.996" y2="5.5" stroke="#000" stroke-width="0.12" /><g transform="translate(9.247,1.5)"><text x="0" y="0" font-family="Bravura" font-size="4"></text></g><line x1="9.307" y1="1.668" x2="9.307" y2="5" stroke="#000" stroke-width="0.12" /><g transform="translate(13.558,1)"><text x="0" y="0" font-family="Bravura" font-size="4"></text></g><line x1="13.618" y1="1.168" x2="13.618" y2="4.5" stroke="#000" stroke-width="0.12" /><g transform="translate(4.936,12.5)"><text x="0" y="0" font-family="Bravura" font-size="4"></text></g><line x1="4.996" y1="12.668" x2="4.996" y2="16" stroke="#000" stroke-width="0.12" /><g transform="translate(13.558,12.5)"><text x="0" y="0" font-family="Bravura" font-size="4"></text></g><line x1="13.618" y1="12.668" x2="13.618" y2="16" stroke="#000" stroke-width="0.12" /><line x1="17.95" y1="0" x2="17.95" y2="16" stroke="#000" stroke-width="0.16" /><g transform="translate(18.93,0.5)"><text x="0" y="0" font-family="Bravura" font-size="4"></text></g><line x1="18.99" y1="0.668" x2="18.99" y2="4" stroke="#000" stroke-width="0.12" /><g transform="translate(23.241,1)"><text x="0" y="0" font-family="Bravura" font-size="4"></text></g><line x1="23.301" y1="1.168" x2="23.301" y2="4.5" stroke="#000" stroke-width="0.12" /><g transform="translate(27.552,1.5)"><text x="0" y="0" font-family="Bravura" font-size="4"></text></g><line x1="27.612" y1="1.668" x2="27.612" y2="5" stroke="#000" stroke-width="0.12" /><g transform="translate(18.93,12.5)"><text x="0" y="0" font-family="Bravura" font-size="4"></text></g><line x1="18.99" y1="12.668" x2="18.99" y2="16" stroke="#000" stroke-width="0.12" /><g transform="translate(27.552,12.5)"><text x="0" y="0" font-family="Bravura" font-size="4"></text></g><line x1="27.612" y1="12.668" x2="27.612" y2="16" stroke="#000" stroke-width="0.12" /><line x1="31.943" y1="0" x2="31.943" y2="16" stroke="#000" stroke-width="0.16" /><g transform="translate(32.923,2)"><text x="0" y="0" font-family="Bravura" font-size="4"></text></g><line x1="32.983" y1="2.168" x2="32.983" y2="5.5" stroke="#000" stroke-width="0.12" /><g transform="translate(38.466,2)"><text x="0" y="0" font-family="Bravura" font-size="4"></text></g><line x1="38.526" y1="2.168" x2="38.526" y2="5.5" stroke="#000" stroke-width="0.12" /><g transform="translate(32.923,12.5)"><text x="0" y="0" font-family="Bravura" font-size="4"></text></g><line x1="32.983" y1="12.668" x2="32.983" y2="16" stroke="#000" stroke-width="0.12" /><g transform="translate(38.466,12.5)"><text x="0" y="0" font-family="Bravura" font-size="4"></text></g><line x1="38.526" y1="12.668" x2="38.526" y2="16" stroke="#000" stroke-width="0.12" /><line x1="42.857" y1="0" x2="42.857" y2="16" stroke="#000" stroke-width="0.16" /><g transform="translate(43.837,3)"><text x="0" y="0" font-family="Bravura" font-size="4"></text></g><line x1="44.957" y1="2.832" x2="44.957" y2="-0.5" stroke="#000" stroke-width="0.12" /><g transform="translate(48.148,2.5)"><text x="0" y="0" font-family="Bravura" font-size="4"></text></g><line x1="49.268" y1="2.332" x2="49.268" y2="-1" stroke="#000" stroke-width="0.12" /><g transform="translate(52.459,2)"><text x="0" y="0" font-family="Bravura" font-size="4"></text></g><line x1="52.519" y1="2.168" x2="52.519" y2="5.5" stroke="#000" stroke-width="0.12" /><g transform="translate(43.837,13.5)"><text x="0" y="0" font-family="Bravura" font-size="4"></text></g><line x1="43.897" y1="13.668" x2="43.897" y2="17" stroke="#000" stroke-width="0.12" /><g transform="translate(52.459,13.5)"><text x="0" y="0" font-family="Bravura" font-size="4"></text></g><line x1="52.519" y1="13.668" x2="52.519" y2="17" stroke="#000" stroke-width="0.12" /><line x1="56.851" y1="0" x2="56.851" y2="16" stroke="#000" stroke-width="0.16" /><g transform="translate(57.831,1.5)"><text x="0" y="0" font-family="Bravura" font-size="4"></text></g><line x1="57.891" y1="1.668" x2="57.891" y2="5" stroke="#000" stroke-width="0.12" /><g transform="translate(63.374,2)"><text x="0" y="0" font-family="Bravura" font-size="4"></text></g><line x1="63.434" y1="2.168" x2="63.434" y2="5.5" stroke="#000" stroke-width="0.12" /><g transform="translate(57.831,12)"><text x="0" y="0" font-family="Bravura" font-size="4"></text></g><line x1="57.891" y1="12.168" x2="57.891" y2="15.5" stroke="#000" stroke-width="0.12" /><g transform="translate(63.374,12)"><text x="0" y="0" font-family="Bravura" font-size="4"></text></g><line x1="63.434" y1="12.168" x2="63.434" y2="15.5" stroke="#000" stroke-width="0.12" /><line x1="67.765" y1="0" x2="67.765" y2="16" stroke="#000" stroke-width="0.16" /><g transform="translate(68.745,2.5)"><text x="0" y="0" font-family="Bravura" font-size="4"></text></g><line x1="69.865" y1="2.332" x2="69.865" y2="-1" stroke="#000" stroke-width="0.12" /><g transform="translate(73.056,2)"><text x="0" y="0" font-family="Bravura" font-size="4"></text></g><line x1="73.116" y1="2.168" x2="73.116" y2="5.5" stroke="#000" stroke-width="0.12" /><g transform="translate(77.367,1.5)"><text x="0" y="0" font-family="Bravura" font-size="4"></text></g><line x1="77.427" y1="1.668" x2="77.427" y2="5" stroke="#000" stroke-width="0.12" /><g transform="translate(68.745,14)"><text x="0" y="0" font-family="Bravura" font-size="4"></text></g><line x1="68.805" y1="14.168" x2="68.805" y2="17.5" stroke="#000" stroke-width="0.12" /><g transform="translate(77.367,14)"><text x="0" y="0" font-family="Bravura" font-size="4"></text></g><line x1="77.427" y1="14.168" x2="77.427" y2="17.5" stroke="#000" stroke-width="0.12" /><line x1="81.758" y1="0" x2="81.758" y2="16" stroke="#000" stroke-width="0.16" /><g transform="translate(82.738,2)"><text x="0" y="0" font-family="Bravura" font-size="4"></text></g><line x1="82.798" y1="2.168" x2="82.798" y2="5.5" stroke="#000" stroke-width="0.12" /><g transform="translate(88.281,2.5)"><text x="0" y="0" font-family="Bravura" font-size="4"></text></g><line x1="89.401" y1="2.332" x2="89.401" y2="-1" stroke="#000" stroke-width="0.12" /><g transform="translate(82.738,13.5)"><text x="0" y="0" font-family="Bravura" font-size="4"></text></g><line x1="82.798" y1="13.668" x2="82.798" y2="17" stroke="#000" stroke-width="0.12" /><g transform="translate(88.281,13.5)"><text x="0" y="0" font-family="Bravura" font-size="4"></text></g><line x1="88.341" y1="13.668" x2="88.341" y2="17" stroke="#000" stroke-width="0.12" /><line x1="92.672" y1="0" x2="92.672" y2="16" stroke="#000" stroke-width="0.16" /><g transform="translate(93.652,3)"><text x="0" y="0" font-family="Bravura" font-size="4"></text></g><line x1="94.772" y1="2.832" x2="94.772" y2="-0.5" stroke="#000" stroke-width="0.12" /><g transform="translate(99.195,3)"><text x="0" y="0" font-family="Bravura" font-size="4"></text></g><line x1="100.315" y1="2.832" x2="100.315" y2="-0.5" stroke="#000" stroke-width="0.12" /><g transform="translate(93.652,12.5)"><text x="0" y="0" font-family="Bravura" font-size="4"></text></g><line x1="93.712" y1="12.668" x2="93.712" y2="16" stroke="#000" stroke-width="0.12" /><g transform="translate(99.195,12.5)"><text x="0" y="0" font-family="Bravura" font-size="4"></text></g><line x1="99.255" y1="12.668" x2="99.255" y2="16" stroke="#000" stroke-width="0.12" /><line x1="104.316" y1="0" x2="104.316" y2="16" stroke="#000" stroke-width="0.5" /><line x1="103.586" y1="0" x2="103.586" y2="16" stroke="#000" stroke-width="0.16" /></g><text x="60" y="11.971" font-family="serif" font-size="3.4" text-anchor="middle" font-weight="bold">Minuet in G</text><text x="113.143" y="16.071" font-family="serif" font-size="1.8" text-anchor="end" font-style="italic">Test</text></svg>