<svg xmlns="http://www.w3.org/2000/svg" width="210mm" height="297mm" viewBox="0 0 120 169.714" data-page-index="0"><rect x="0" y="0" width="120" height="169.714" fill="#fff" /><g transform="translate(8.576,23.339)"><line x1="0" y1="0" x2="53.69" y2="0" stroke="#000" stroke-width="0.13" /><line x1="0" y1="1" x2="53.69" y2="1" stroke="#000" stroke-width="0.13" /><line x1="0" y1="2" x2="53.69" y2="2" stroke="#000" stroke-width="0.13" /><line x1="0" y1="3" x2="53.69" y2="3" stroke="#000" stroke-width="0.13" /><line x1="0" y1="4" x2="53.69" y2="4" stroke="#000" stroke-width="0.13" /><line x1="0" y1="12" x2="53.69" y2="12" stroke="#000" stroke-width="0.13" /><line x1="0" y1="13" x2="53.69" y2="13" stroke="#000" stroke-width="0.13" /><line x1="0" y1="14" x2="53.69" y2="14" stroke="#000" stroke-width="0.13" /><line x1="0" y1="15" x2="53.69" y2="15" stroke="#000" stroke-width="0.13" /><line x1="0" y1="16" x2="53.69" y2="16" stroke="#000" stroke-width="0.13" /><g transform="translate(-1.719,16) scale(3.998)"><text x="0" y="0" font-family="Bravura" font-size="4"></text></g><line x1="0" y1="0" x2="0" y2="16" stroke="#000" stroke-width="0.16" /><g transform="translate(0.4,3)"><text x="0" y="0" font-family="Bravura" font-size="4"></text></g><g transform="translate(4.036,1)"><text x="0" y="0" font-family="Bravura" font-size="4"></text></g><g transform="translate(4.036,3)"><text x="0" y="0" font-family="Bravura" font-size="4"></text></g><g transform="translate(0.4,13)"><text x="0" y="0" font-family="Bravura" font-size="4"></text></g><g transform="translate(4.036,13)"><text x="0" y="0" font-family="Bravura" font-size="4"></text></g><g transform="translate(4.036,15)"><text x="0" y="0" font-family="Bravura" font-size="4"></text></g><g transform="translate(7.816,1.5)"><text x="0" y="0" font-family="Bravura" font-size="4"></text></g><line x1="7.876" y1="1.668" x2="7.876" y2="5" stroke="#000" stroke-width="0.12" /><g transform="translate(11.316,1)"><text x="0" y="0" font-family="Bravura" font-size="4"></text></g><line x1="11.376" y1="1.168" x2="11.376" y2="4.5" stroke="#000" stroke-width="0.12" /><g transform="translate(14.816,0.5)"><text x="0" y="0" font-family="Bravura" font-size="4"></text></g><line x1="14.876" y1="0.668" x2="14.876" y2="4" stroke="#000" stroke-width="0.12" /><g transform="translate(18.316,0)"><text x="0" y="0" font-family="Bravura" font-size="4"></text></g><line x1="18.376" y1="0.168" x2="18.376" y2="3.5" stroke="#000" stroke-width="0.12" /><g transform="translate(7.816,14.5)"><text x="0" y="0" font-family="Bravura" font-size="4"></text></g><line x1="8.936" y1="14.332" x2="8.936" y2="11" stroke="#000" stroke-width="0.12" /><g transform="translate(11.316,14)"><text x="0" y="0" font-family="Bravura" font-size="4"></text></g><line x1="11.376" y1="14.168" x2="11.376" y2="17.5" stroke="#000" stroke-width="0.12" /><g transform="translate(14.816,13.5)"><text x="0" y="0" font-family="Bravura" font-size="4"></text></g><line x1="14.876" y1="13.668" x2="14.876" y2="17" stroke="#000" stroke-width="0.12" /><g transform="translate(18.316,13)"><text x="0" y="0" font-family="Bravura" font-size="4"></text></g><line x1="18.376" y1="13.168" x2="18.376" y2="16.5" stroke="#000" stroke-width="0.12" /><line x1="21.896" y1="0" x2="21.896" y2="16" stroke="#000" stroke-width="0.16" /><g transform="translate(22.876,-0.5)"><text x="0" y="0" font-family="Bravura" font-size="4"></text></g><line x1="22.936" y1="-0.332" x2="22.936" y2="3" stroke="#000" stroke-width="0.12" /><line x1="25.976" y1="-1" x2="27.956" y2="-1" stroke="#000" stroke-width="0.16" /><g transform="translate(26.376,-1)"><text x="0" y="0" font-family="Bravura" font-size="4"></text></g><line x1="26.436" y1="-0.832" x2="26.436" y2="2.5" stroke="#000" stroke-width="0.12" /><g transform="translate(30.41,1.5)"><text x="0" y="0" font-family="Bravura" font-size="4"></text></g><g transform="translate(29.256,0.5)"><text x="0" y="0" font-family="Bravura" font-size="4"></text></g><g transform="translate(30.41,0.5)"><text x="0" y="0" font-family="Bravura" font-size="4"></text></g><g transform="translate(30.41,-0.5)"><text x="0" y="0" font-family="Bravura" font-size="4"></text></g><line x1="30.47" y1="-0.332" x2="30.47" y2="5" stroke="#000" stroke-width="0.12" /><g transform="translate(22.876,12.5)"><text x="0" y="0" font-family="Bravura" font-size="4"></text></g><line x1="22.936" y1="12.668" x2="22.936" y2="16" stroke="#000" stroke-width="0.12" /><g transform="translate(30.41,14.5)"><text x="0" y="0" font-family="Bravura" font-size="4"></text></g><line x1="31.53" y1="14.332" x2="31.53" y2="11" stroke="#000" stroke-width="0.12" /><line x1="34.99" y1="0" x2="34.99" y2="16" stroke="#000" stroke-width="0.16" /><g transform="translate(37.07,1.5)"><text x="0" y="0" font-family="Bravura" font-size="4"></text></g><g transform="translate(37.07,0.5)"><text x="0" y="0" font-family="Bravura" font-size="4"></text></g><g transform="translate(37.07,-0.5)"><text x="0" y="0" font-family="Bravura" font-size="4"></text></g><line x1="37.13" y1="-0.332" x2="37.13" y2="5" stroke="#000" stroke-width="0.12" /><line x1="41.17" y1="-1" x2="43.15" y2="-1" stroke="#000" stroke-width="0.16" /><g transform="translate(41.57,1)"><text x="0" y="0" font-family="Bravura" font-size="4"></text></g><g transform="translate(41.57,0)"><text x="0" y="0" font-family="Bravura" font-size="4"></text></g><g transform="translate(41.57,-1)"><text x="0" y="0" font-family="Bravura" font-size="4"></text></g><line x1="41.63" y1="-0.832" x2="41.63" y2="4.5" stroke="#000" stroke-width="0.12" /><g transform="translate(37.07,14.5)"><text x="0" y="0" font-family="Bravura" font-size="4"></text></g><line x1="38.19" y1="14.332" x2="38.19" y2="11" stroke="#000" stroke-width="0.12" /><g transform="translate(41.57,16)"><text x="0" y="0" font-family="Bravura" font-size="4"></text></g><line x1="42.69" y1="15.832" x2="42.69" y2="12.5" stroke="#000" stroke-width="0.12" /><line x1="46.15" y1="0" x2="46.15" y2="16" stroke="#000" stroke-width="0.16" /><g transform="translate(47.13,1.5)"><text x="0" y="0" font-family="Bravura" font-size="4"></text></g><g transform="translate(47.13,14.5)"><text x="0" y="0" font-family="Bravura" font-size="4"></text></g><line x1="53.44" y1="0" x2="53.44" y2="16" stroke="#000" stroke-width="0.5" /><line x1="52.71" y1="0" x2="52.71" y2="16" stroke="#000" stroke-width="0.16" /><g transform="translate(7.364,-0.84)"><text x="0" y="0" font-family="Bravura" font-size="4"></text></g><g transform="translate(10.448,-1.092)"><text x="0" y="0" font-family="Bravura" font-size="4"></text></g><g transform="translate(13.946,-0.8)"><text x="0" y="0" font-family="Bravura" font-size="4"></text></g><g transform="translate(17.986,-1.3)"><text x="0" y="0" font-family="Bravura" font-size="4"></text></g><g transform="translate(8.936,12.666)"><text x="0" y="0" font-family="Bravura" font-size="4"></text></g><g transform="translate(11.376,16.016)"><text x="0" y="0" font-family="Bravura" font-size="4"></text></g><g transform="translate(14.876,15.884)"><text x="0" y="0" font-family="Bravura" font-size="4"></text></g><g transform="translate(22.552,-1.8)"><text x="0" y="0" font-family="Bravura" font-size="4"></text></g><g transform="translate(25.924,-2.34)"><text x="0" y="0" font-family="Bravura" font-size="4"></text></g><g transform="translate(25.508,-4.492)"><text x="0" y="0" font-family="Bravura" font-size="4"></text></g><g transform="translate(28.321,2.115) scale(0.532)"><text x="0" y="0" font-family="Bravura" font-size="4"></text></g><g transform="translate(22.936,14.884)"><text x="0" y="0" font-family="Bravura" font-size="4"></text></g><g transform="translate(31.53,12.666)"><text x="0" y="0" font-family="Bravura" font-size="4"></text></g><g transform="translate(36.135,2.091) scale(0.532)"><text x="0" y="0" font-family="Bravura" font-size="4"></text></g><g transform="translate(40.833,1.621) scale(0.589)"><text x="0" y="0" font-family="Bravura" font-size="4"></text></g><g transform="translate(38.19,12.484)"><text x="0" y="0" font-family="Bravura" font-size="4"></text></g><g transform="translate(47.974,3.816)"><text x="0" y="0" font-family="Bravura" font-size="4"></text></g><g transform="translate(47.974,12.552)"><text x="0" y="0" font-family="Bravura" font-size="4"></text></g></g><text x="60" y="11.971" font-family="serif" font-size="3.4" text-anchor="middle" font-weight="bold">Ornaments</text></svg>